<svg width="361" height="92" viewBox="0 0 361 92" fill="none" xmlns="http://www.w3.org/2000/svg">
<path d="M7.992 21L5.004 15.87H3.024V21H1.386V8.454H5.436C6.384 8.454 7.182 8.616 7.83 8.94C8.49 9.264 8.982 9.702 9.306 10.254C9.63 10.806 9.792 11.436 9.792 12.144C9.792 13.008 9.54 13.77 9.036 14.43C8.544 15.09 7.8 15.528 6.804 15.744L9.954 21H7.992ZM3.024 14.556H5.436C6.324 14.556 6.99 14.34 7.434 13.908C7.878 13.464 8.1 12.876 8.1 12.144C8.1 11.4 7.878 10.824 7.434 10.416C7.002 10.008 6.336 9.804 5.436 9.804H3.024V14.556ZM21.3372 15.69C21.3372 16.002 21.3192 16.332 21.2832 16.68H13.3992C13.4592 17.652 13.7892 18.414 14.3892 18.966C15.0012 19.506 15.7392 19.776 16.6032 19.776C17.3112 19.776 17.8992 19.614 18.3672 19.29C18.8472 18.954 19.1832 18.51 19.3752 17.958H21.1392C20.8752 18.906 20.3472 19.68 19.5552 20.28C18.7632 20.868 17.7792 21.162 16.6032 21.162C15.6672 21.162 14.8272 20.952 14.0832 20.532C13.3512 20.112 12.7752 19.518 12.3552 18.75C11.9352 17.97 11.7252 17.07 11.7252 16.05C11.7252 15.03 11.9292 14.136 12.3372 13.368C12.7452 12.6 13.3152 12.012 14.0472 11.604C14.7912 11.184 15.6432 10.974 16.6032 10.974C17.5392 10.974 18.3672 11.178 19.0872 11.586C19.8072 11.994 20.3592 12.558 20.7432 13.278C21.1392 13.986 21.3372 14.79 21.3372 15.69ZM19.6452 15.348C19.6452 14.724 19.5072 14.19 19.2312 13.746C18.9552 13.29 18.5772 12.948 18.0972 12.72C17.6292 12.48 17.1072 12.36 16.5312 12.36C15.7032 12.36 14.9952 12.624 14.4072 13.152C13.8312 13.68 13.5012 14.412 13.4172 15.348H19.6452ZM22.8873 16.05C22.8873 15.03 23.0913 14.142 23.4993 13.386C23.9073 12.618 24.4713 12.024 25.1913 11.604C25.9233 11.184 26.7573 10.974 27.6933 10.974C28.9053 10.974 29.9013 11.268 30.6813 11.856C31.4733 12.444 31.9953 13.26 32.2473 14.304H30.4833C30.3153 13.704 29.9853 13.23 29.4933 12.882C29.0133 12.534 28.4133 12.36 27.6933 12.36C26.7573 12.36 26.0013 12.684 25.4253 13.332C24.8493 13.968 24.5613 14.874 24.5613 16.05C24.5613 17.238 24.8493 18.156 25.4253 18.804C26.0013 19.452 26.7573 19.776 27.6933 19.776C28.4133 19.776 29.0133 19.608 29.4933 19.272C29.9733 18.936 30.3033 18.456 30.4833 17.832H32.2473C31.9833 18.84 31.4553 19.65 30.6633 20.262C29.8713 20.862 28.8813 21.162 27.6933 21.162C26.7573 21.162 25.9233 20.952 25.1913 20.532C24.4713 20.112 23.9073 19.518 23.4993 18.75C23.0913 17.982 22.8873 17.082 22.8873 16.05ZM43.4329 15.69C43.4329 16.002 43.4149 16.332 43.3789 16.68H35.4949C35.5549 17.652 35.8849 18.414 36.4849 18.966C37.0969 19.506 37.8349 19.776 38.6989 19.776C39.4069 19.776 39.9949 19.614 40.4629 19.29C40.9429 18.954 41.2789 18.51 41.4709 17.958H43.2349C42.9709 18.906 42.4429 19.68 41.6509 20.28C40.8589 20.868 39.8749 21.162 38.6989 21.162C37.7629 21.162 36.9229 20.952 36.1789 20.532C35.4469 20.112 34.8709 19.518 34.4509 18.75C34.0309 17.97 33.8209 17.07 33.8209 16.05C33.8209 15.03 34.0249 14.136 34.4329 13.368C34.8409 12.6 35.4109 12.012 36.1429 11.604C36.8869 11.184 37.7389 10.974 38.6989 10.974C39.6349 10.974 40.4629 11.178 41.1829 11.586C41.9029 11.994 42.4549 12.558 42.8389 13.278C43.2349 13.986 43.4329 14.79 43.4329 15.69ZM41.7409 15.348C41.7409 14.724 41.6029 14.19 41.3269 13.746C41.0509 13.29 40.6729 12.948 40.1929 12.72C39.7249 12.48 39.2029 12.36 38.6269 12.36C37.7989 12.36 37.0909 12.624 36.5029 13.152C35.9269 13.68 35.5969 14.412 35.5129 15.348H41.7409ZM50.401 10.956C51.601 10.956 52.573 11.322 53.317 12.054C54.061 12.774 54.433 13.818 54.433 15.186V21H52.813V15.42C52.813 14.436 52.567 13.686 52.075 13.17C51.583 12.642 50.911 12.378 50.059 12.378C49.195 12.378 48.505 12.648 47.989 13.188C47.485 13.728 47.233 14.514 47.233 15.546V21H45.595V11.136H47.233V12.54C47.557 12.036 47.995 11.646 48.547 11.37C49.111 11.094 49.729 10.956 50.401 10.956ZM59.1067 12.486V18.3C59.1067 18.78 59.2087 19.122 59.4127 19.326C59.6167 19.518 59.9707 19.614 60.4747 19.614H61.6807V21H60.2047C59.2927 21 58.6087 20.79 58.1527 20.37C57.6967 19.95 57.4687 19.26 57.4687 18.3V12.486H56.1907V11.136H57.4687V8.652H59.1067V11.136H61.6807V12.486H59.1067ZM77.4641 15.69C77.4641 16.002 77.4461 16.332 77.4101 16.68H69.5261C69.5861 17.652 69.9161 18.414 70.5161 18.966C71.1281 19.506 71.8661 19.776 72.7301 19.776C73.4381 19.776 74.0261 19.614 74.4941 19.29C74.9741 18.954 75.3101 18.51 75.5021 17.958H77.2661C77.0021 18.906 76.4741 19.68 75.6821 20.28C74.8901 20.868 73.9061 21.162 72.7301 21.162C71.7941 21.162 70.9541 20.952 70.2101 20.532C69.4781 20.112 68.9021 19.518 68.4821 18.75C68.0621 17.97 67.8521 17.07 67.8521 16.05C67.8521 15.03 68.0561 14.136 68.4641 13.368C68.8721 12.6 69.4421 12.012 70.1741 11.604C70.9181 11.184 71.7701 10.974 72.7301 10.974C73.6661 10.974 74.4941 11.178 75.2141 11.586C75.9341 11.994 76.4861 12.558 76.8701 13.278C77.2661 13.986 77.4641 14.79 77.4641 15.69ZM75.7721 15.348C75.7721 14.724 75.6341 14.19 75.3581 13.746C75.0821 13.29 74.7041 12.948 74.2241 12.72C73.7561 12.48 73.2341 12.36 72.6581 12.36C71.8301 12.36 71.1221 12.624 70.5341 13.152C69.9581 13.68 69.6281 14.412 69.5441 15.348H75.7721ZM84.4322 10.956C85.6322 10.956 86.6042 11.322 87.3482 12.054C88.0922 12.774 88.4642 13.818 88.4642 15.186V21H86.8442V15.42C86.8442 14.436 86.5982 13.686 86.1062 13.17C85.6142 12.642 84.9422 12.378 84.0902 12.378C83.2262 12.378 82.5362 12.648 82.0202 13.188C81.5162 13.728 81.2642 14.514 81.2642 15.546V21H79.6262V11.136H81.2642V12.54C81.5882 12.036 82.0262 11.646 82.5782 11.37C83.1422 11.094 83.7602 10.956 84.4322 10.956ZM95.2079 10.974C96.0599 10.974 96.8039 11.16 97.4399 11.532C98.0879 11.904 98.5679 12.372 98.8799 12.936V11.136H100.536V21.216C100.536 22.116 100.344 22.914 99.9599 23.61C99.5759 24.318 99.0239 24.87 98.3039 25.266C97.5959 25.662 96.7679 25.86 95.8199 25.86C94.5239 25.86 93.4439 25.554 92.5799 24.942C91.7159 24.33 91.2059 23.496 91.0499 22.44H92.6699C92.8499 23.04 93.2219 23.52 93.7859 23.88C94.3499 24.252 95.0279 24.438 95.8199 24.438C96.7199 24.438 97.4519 24.156 98.0159 23.592C98.5919 23.028 98.8799 22.236 98.8799 21.216V19.146C98.5559 19.722 98.0759 20.202 97.4399 20.586C96.8039 20.97 96.0599 21.162 95.2079 21.162C94.3319 21.162 93.5339 20.946 92.8139 20.514C92.1059 20.082 91.5479 19.476 91.1399 18.696C90.7319 17.916 90.5279 17.028 90.5279 16.032C90.5279 15.024 90.7319 14.142 91.1399 13.386C91.5479 12.618 92.1059 12.024 92.8139 11.604C93.5339 11.184 94.3319 10.974 95.2079 10.974ZM98.8799 16.05C98.8799 15.306 98.7299 14.658 98.4299 14.106C98.1299 13.554 97.7219 13.134 97.2059 12.846C96.7019 12.546 96.1439 12.396 95.5319 12.396C94.9199 12.396 94.3619 12.54 93.8579 12.828C93.3539 13.116 92.9519 13.536 92.6519 14.088C92.3519 14.64 92.2019 15.288 92.2019 16.032C92.2019 16.788 92.3519 17.448 92.6519 18.012C92.9519 18.564 93.3539 18.99 93.8579 19.29C94.3619 19.578 94.9199 19.722 95.5319 19.722C96.1439 19.722 96.7019 19.578 97.2059 19.29C97.7219 18.99 98.1299 18.564 98.4299 18.012C98.7299 17.448 98.8799 16.794 98.8799 16.05ZM102.692 16.032C102.692 15.024 102.896 14.142 103.304 13.386C103.712 12.618 104.27 12.024 104.978 11.604C105.698 11.184 106.496 10.974 107.372 10.974C108.236 10.974 108.986 11.16 109.622 11.532C110.258 11.904 110.732 12.372 111.044 12.936V11.136H112.7V21H111.044V19.164C110.72 19.74 110.234 20.22 109.586 20.604C108.95 20.976 108.206 21.162 107.354 21.162C106.478 21.162 105.686 20.946 104.978 20.514C104.27 20.082 103.712 19.476 103.304 18.696C102.896 17.916 102.692 17.028 102.692 16.032ZM111.044 16.05C111.044 15.306 110.894 14.658 110.594 14.106C110.294 13.554 109.886 13.134 109.37 12.846C108.866 12.546 108.308 12.396 107.696 12.396C107.084 12.396 106.526 12.54 106.022 12.828C105.518 13.116 105.116 13.536 104.816 14.088C104.516 14.64 104.366 15.288 104.366 16.032C104.366 16.788 104.516 17.448 104.816 18.012C105.116 18.564 105.518 18.99 106.022 19.29C106.526 19.578 107.084 19.722 107.696 19.722C108.308 19.722 108.866 19.578 109.37 19.29C109.886 18.99 110.294 18.564 110.594 18.012C110.894 17.448 111.044 16.794 111.044 16.05ZM119.536 10.974C120.388 10.974 121.132 11.16 121.768 11.532C122.416 11.904 122.896 12.372 123.208 12.936V11.136H124.864V21.216C124.864 22.116 124.672 22.914 124.288 23.61C123.904 24.318 123.352 24.87 122.632 25.266C121.924 25.662 121.096 25.86 120.148 25.86C118.852 25.86 117.772 25.554 116.908 24.942C116.044 24.33 115.534 23.496 115.378 22.44H116.998C117.178 23.04 117.55 23.52 118.114 23.88C118.678 24.252 119.356 24.438 120.148 24.438C121.048 24.438 121.78 24.156 122.344 23.592C122.92 23.028 123.208 22.236 123.208 21.216V19.146C122.884 19.722 122.404 20.202 121.768 20.586C121.132 20.97 120.388 21.162 119.536 21.162C118.66 21.162 117.862 20.946 117.142 20.514C116.434 20.082 115.876 19.476 115.468 18.696C115.06 17.916 114.856 17.028 114.856 16.032C114.856 15.024 115.06 14.142 115.468 13.386C115.876 12.618 116.434 12.024 117.142 11.604C117.862 11.184 118.66 10.974 119.536 10.974ZM123.208 16.05C123.208 15.306 123.058 14.658 122.758 14.106C122.458 13.554 122.05 13.134 121.534 12.846C121.03 12.546 120.472 12.396 119.86 12.396C119.248 12.396 118.69 12.54 118.186 12.828C117.682 13.116 117.28 13.536 116.98 14.088C116.68 14.64 116.53 15.288 116.53 16.032C116.53 16.788 116.68 17.448 116.98 18.012C117.28 18.564 117.682 18.99 118.186 19.29C118.69 19.578 119.248 19.722 119.86 19.722C120.472 19.722 121.03 19.578 121.534 19.29C122.05 18.99 122.458 18.564 122.758 18.012C123.058 17.448 123.208 16.794 123.208 16.05ZM136.632 15.69C136.632 16.002 136.614 16.332 136.578 16.68H128.694C128.754 17.652 129.084 18.414 129.684 18.966C130.296 19.506 131.034 19.776 131.898 19.776C132.606 19.776 133.194 19.614 133.662 19.29C134.142 18.954 134.478 18.51 134.67 17.958H136.434C136.17 18.906 135.642 19.68 134.85 20.28C134.058 20.868 133.074 21.162 131.898 21.162C130.962 21.162 130.122 20.952 129.378 20.532C128.646 20.112 128.07 19.518 127.65 18.75C127.23 17.97 127.02 17.07 127.02 16.05C127.02 15.03 127.224 14.136 127.632 13.368C128.04 12.6 128.61 12.012 129.342 11.604C130.086 11.184 130.938 10.974 131.898 10.974C132.834 10.974 133.662 11.178 134.382 11.586C135.102 11.994 135.654 12.558 136.038 13.278C136.434 13.986 136.632 14.79 136.632 15.69ZM134.94 15.348C134.94 14.724 134.802 14.19 134.526 13.746C134.25 13.29 133.872 12.948 133.392 12.72C132.924 12.48 132.402 12.36 131.826 12.36C130.998 12.36 130.29 12.624 129.702 13.152C129.126 13.68 128.796 14.412 128.712 15.348H134.94ZM150.656 10.956C151.424 10.956 152.108 11.118 152.708 11.442C153.308 11.754 153.782 12.228 154.13 12.864C154.478 13.5 154.652 14.274 154.652 15.186V21H153.032V15.42C153.032 14.436 152.786 13.686 152.294 13.17C151.814 12.642 151.16 12.378 150.332 12.378C149.48 12.378 148.802 12.654 148.298 13.206C147.794 13.746 147.542 14.532 147.542 15.564V21H145.922V15.42C145.922 14.436 145.676 13.686 145.184 13.17C144.704 12.642 144.05 12.378 143.222 12.378C142.37 12.378 141.692 12.654 141.188 13.206C140.684 13.746 140.432 14.532 140.432 15.564V21H138.794V11.136H140.432V12.558C140.756 12.042 141.188 11.646 141.728 11.37C142.28 11.094 142.886 10.956 143.546 10.956C144.374 10.956 145.106 11.142 145.742 11.514C146.378 11.886 146.852 12.432 147.164 13.152C147.44 12.456 147.896 11.916 148.532 11.532C149.168 11.148 149.876 10.956 150.656 10.956ZM166.339 15.69C166.339 16.002 166.321 16.332 166.285 16.68H158.401C158.461 17.652 158.791 18.414 159.391 18.966C160.003 19.506 160.741 19.776 161.605 19.776C162.313 19.776 162.901 19.614 163.369 19.29C163.849 18.954 164.185 18.51 164.377 17.958H166.141C165.877 18.906 165.349 19.68 164.557 20.28C163.765 20.868 162.781 21.162 161.605 21.162C160.669 21.162 159.829 20.952 159.085 20.532C158.353 20.112 157.777 19.518 157.357 18.75C156.937 17.97 156.727 17.07 156.727 16.05C156.727 15.03 156.931 14.136 157.339 13.368C157.747 12.6 158.317 12.012 159.049 11.604C159.793 11.184 160.645 10.974 161.605 10.974C162.541 10.974 163.369 11.178 164.089 11.586C164.809 11.994 165.361 12.558 165.745 13.278C166.141 13.986 166.339 14.79 166.339 15.69ZM164.647 15.348C164.647 14.724 164.509 14.19 164.233 13.746C163.957 13.29 163.579 12.948 163.099 12.72C162.631 12.48 162.109 12.36 161.533 12.36C160.705 12.36 159.997 12.624 159.409 13.152C158.833 13.68 158.503 14.412 158.419 15.348H164.647ZM173.307 10.956C174.507 10.956 175.479 11.322 176.223 12.054C176.967 12.774 177.339 13.818 177.339 15.186V21H175.719V15.42C175.719 14.436 175.473 13.686 174.981 13.17C174.489 12.642 173.817 12.378 172.965 12.378C172.101 12.378 171.411 12.648 170.895 13.188C170.391 13.728 170.139 14.514 170.139 15.546V21H168.501V11.136H170.139V12.54C170.463 12.036 170.901 11.646 171.453 11.37C172.017 11.094 172.635 10.956 173.307 10.956ZM182.013 12.486V18.3C182.013 18.78 182.115 19.122 182.319 19.326C182.523 19.518 182.877 19.614 183.381 19.614H184.587V21H183.111C182.199 21 181.515 20.79 181.059 20.37C180.603 19.95 180.375 19.26 180.375 18.3V12.486H179.097V11.136H180.375V8.652H182.013V11.136H184.587V12.486H182.013Z" fill="#5F5B53"/>
<path d="M20.3672 51.2109V56.5391H9.92578V62.5977C10.4128 62.3971 11 62.2396 11.6875 62.125C12.375 61.9818 13.1055 61.9102 13.8789 61.9102C15.3112 61.9102 16.6432 62.2682 17.875 62.9844C19.1354 63.6719 20.1523 64.6458 20.9258 65.9062C21.6992 67.138 22.0859 68.599 22.0859 70.2891C22.0859 72.5234 21.5846 74.4141 20.582 75.9609C19.5794 77.4792 18.2474 78.6393 16.5859 79.4414C14.9245 80.2435 13.0768 80.6445 11.043 80.6445C9.1237 80.6445 7.49089 80.3438 6.14453 79.7422C4.79818 79.112 3.7526 78.4961 3.00781 77.8945V72.5664C4.03906 73.1966 5.1276 73.8268 6.27344 74.457C7.41927 75.0586 8.73698 75.3594 10.2266 75.3594C11.9453 75.3594 13.3633 75.0013 14.4805 74.2852C15.5977 73.5404 16.1562 72.4375 16.1562 70.9766C16.1562 69.6589 15.5833 68.599 14.4375 67.7969C13.3203 66.9948 11.9167 66.5938 10.2266 66.5938C9.13802 66.5938 8.13542 66.7083 7.21875 66.9375C6.33073 67.1667 5.48568 67.4102 4.68359 67.668V51.2109H20.3672ZM37.125 50.5664C39.5885 50.5664 41.6367 51.2539 43.2695 52.6289C44.931 53.9753 46.1628 55.7943 46.9648 58.0859C47.7956 60.349 48.2109 62.8555 48.2109 65.6055C48.2109 68.3555 47.7956 70.8763 46.9648 73.168C46.1628 75.431 44.931 77.25 43.2695 78.625C41.6367 79.9714 39.5885 80.6445 37.125 80.6445C34.6615 80.6445 32.599 79.9714 30.9375 78.625C29.3047 77.25 28.0729 75.431 27.2422 73.168C26.4401 70.8763 26.0391 68.3555 26.0391 65.6055C26.0391 62.8555 26.4401 60.349 27.2422 58.0859C28.0729 55.7943 29.3047 53.9753 30.9375 52.6289C32.599 51.2539 34.6615 50.5664 37.125 50.5664ZM37.125 55.7656C35.9792 55.7656 35.0195 56.2096 34.2461 57.0977C33.5013 57.957 32.9427 59.1315 32.5703 60.6211C32.1979 62.082 32.0117 63.7435 32.0117 65.6055C32.0117 67.4674 32.1979 69.1432 32.5703 70.6328C32.9427 72.0938 33.5013 73.2539 34.2461 74.1133C35.0195 74.9727 35.9792 75.4023 37.125 75.4023C38.2708 75.4023 39.2161 74.9727 39.9609 74.1133C40.7344 73.2539 41.3073 72.0938 41.6797 70.6328C42.0807 69.1432 42.2812 67.4674 42.2812 65.6055C42.2812 63.7435 42.0807 62.082 41.6797 60.6211C41.3073 59.1315 40.7344 57.957 39.9609 57.0977C39.2161 56.2096 38.2708 55.7656 37.125 55.7656ZM59.6836 51.2109V64.1016L70.6406 51.2109H78.2031L66.9023 63.8008L79.4922 80H71.6719L62.8203 68.3555L59.6836 71.8789V80H53.7109V51.2109H59.6836Z" fill="#171100"/>
<path d="M98.3913 80.126C97.5633 80.126 96.8193 79.982 96.1593 79.694C95.5113 79.394 95.0013 78.986 94.6293 78.47C94.2573 77.942 94.0653 77.336 94.0533 76.652H95.7993C95.8593 77.24 96.0993 77.738 96.5193 78.146C96.9513 78.542 97.5753 78.74 98.3913 78.74C99.1713 78.74 99.7833 78.548 100.227 78.164C100.683 77.768 100.911 77.264 100.911 76.652C100.911 76.172 100.779 75.782 100.515 75.482C100.251 75.182 99.9213 74.954 99.5253 74.798C99.1293 74.642 98.5953 74.474 97.9233 74.294C97.0953 74.078 96.4293 73.862 95.9253 73.646C95.4333 73.43 95.0073 73.094 94.6473 72.638C94.2993 72.17 94.1253 71.546 94.1253 70.766C94.1253 70.082 94.2993 69.476 94.6473 68.948C94.9953 68.42 95.4813 68.012 96.1053 67.724C96.7413 67.436 97.4673 67.292 98.2833 67.292C99.4593 67.292 100.419 67.586 101.163 68.174C101.919 68.762 102.345 69.542 102.441 70.514H100.641C100.581 70.034 100.329 69.614 99.8853 69.254C99.4413 68.882 98.8533 68.696 98.1213 68.696C97.4373 68.696 96.8793 68.876 96.4473 69.236C96.0153 69.584 95.7993 70.076 95.7993 70.712C95.7993 71.168 95.9253 71.54 96.1773 71.828C96.4413 72.116 96.7593 72.338 97.1313 72.494C97.5153 72.638 98.0493 72.806 98.7333 72.998C99.5613 73.226 100.227 73.454 100.731 73.682C101.235 73.898 101.667 74.24 102.027 74.708C102.387 75.164 102.567 75.788 102.567 76.58C102.567 77.192 102.405 77.768 102.081 78.308C101.757 78.848 101.277 79.286 100.641 79.622C100.005 79.958 99.2553 80.126 98.3913 80.126ZM106.976 71.486V77.3C106.976 77.78 107.078 78.122 107.282 78.326C107.486 78.518 107.84 78.614 108.344 78.614H109.55V80H108.074C107.162 80 106.478 79.79 106.022 79.37C105.566 78.95 105.338 78.26 105.338 77.3V71.486H104.06V70.136H105.338V67.652H106.976V70.136H109.55V71.486H106.976ZM120.282 70.136V80H118.644V78.542C118.332 79.046 117.894 79.442 117.33 79.73C116.778 80.006 116.166 80.144 115.494 80.144C114.726 80.144 114.036 79.988 113.424 79.676C112.812 79.352 112.326 78.872 111.966 78.236C111.618 77.6 111.444 76.826 111.444 75.914V70.136H113.064V75.698C113.064 76.67 113.31 77.42 113.802 77.948C114.294 78.464 114.966 78.722 115.818 78.722C116.694 78.722 117.384 78.452 117.888 77.912C118.392 77.372 118.644 76.586 118.644 75.554V70.136H120.282ZM122.436 75.032C122.436 74.024 122.64 73.142 123.048 72.386C123.456 71.618 124.014 71.024 124.722 70.604C125.442 70.184 126.246 69.974 127.134 69.974C127.902 69.974 128.616 70.154 129.276 70.514C129.936 70.862 130.44 71.324 130.788 71.9V66.68H132.444V80H130.788V78.146C130.464 78.734 129.984 79.22 129.348 79.604C128.712 79.976 127.968 80.162 127.116 80.162C126.24 80.162 125.442 79.946 124.722 79.514C124.014 79.082 123.456 78.476 123.048 77.696C122.64 76.916 122.436 76.028 122.436 75.032ZM130.788 75.05C130.788 74.306 130.638 73.658 130.338 73.106C130.038 72.554 129.63 72.134 129.114 71.846C128.61 71.546 128.052 71.396 127.44 71.396C126.828 71.396 126.27 71.54 125.766 71.828C125.262 72.116 124.86 72.536 124.56 73.088C124.26 73.64 124.11 74.288 124.11 75.032C124.11 75.788 124.26 76.448 124.56 77.012C124.86 77.564 125.262 77.99 125.766 78.29C126.27 78.578 126.828 78.722 127.44 78.722C128.052 78.722 128.61 78.578 129.114 78.29C129.63 77.99 130.038 77.564 130.338 77.012C130.638 76.448 130.788 75.794 130.788 75.05ZM144.212 74.69C144.212 75.002 144.194 75.332 144.158 75.68H136.274C136.334 76.652 136.664 77.414 137.264 77.966C137.876 78.506 138.614 78.776 139.478 78.776C140.186 78.776 140.774 78.614 141.242 78.29C141.722 77.954 142.058 77.51 142.25 76.958H144.014C143.75 77.906 143.222 78.68 142.43 79.28C141.638 79.868 140.654 80.162 139.478 80.162C138.542 80.162 137.702 79.952 136.958 79.532C136.226 79.112 135.65 78.518 135.23 77.75C134.81 76.97 134.6 76.07 134.6 75.05C134.6 74.03 134.804 73.136 135.212 72.368C135.62 71.6 136.19 71.012 136.922 70.604C137.666 70.184 138.518 69.974 139.478 69.974C140.414 69.974 141.242 70.178 141.962 70.586C142.682 70.994 143.234 71.558 143.618 72.278C144.014 72.986 144.212 73.79 144.212 74.69ZM142.52 74.348C142.52 73.724 142.382 73.19 142.106 72.746C141.83 72.29 141.452 71.948 140.972 71.72C140.504 71.48 139.982 71.36 139.406 71.36C138.578 71.36 137.87 71.624 137.282 72.152C136.706 72.68 136.376 73.412 136.292 74.348H142.52ZM151.18 69.956C152.38 69.956 153.352 70.322 154.096 71.054C154.84 71.774 155.212 72.818 155.212 74.186V80H153.592V74.42C153.592 73.436 153.346 72.686 152.854 72.17C152.362 71.642 151.69 71.378 150.838 71.378C149.974 71.378 149.284 71.648 148.768 72.188C148.264 72.728 148.012 73.514 148.012 74.546V80H146.374V70.136H148.012V71.54C148.336 71.036 148.774 70.646 149.326 70.37C149.89 70.094 150.508 69.956 151.18 69.956ZM159.886 71.486V77.3C159.886 77.78 159.988 78.122 160.192 78.326C160.396 78.518 160.75 78.614 161.254 78.614H162.46V80H160.984C160.072 80 159.388 79.79 158.932 79.37C158.476 78.95 158.248 78.26 158.248 77.3V71.486H156.97V70.136H158.248V67.652H159.886V70.136H162.46V71.486H159.886ZM167.937 80.162C167.181 80.162 166.503 80.036 165.903 79.784C165.303 79.52 164.829 79.16 164.481 78.704C164.133 78.236 163.941 77.702 163.905 77.102H165.597C165.645 77.594 165.873 77.996 166.281 78.308C166.701 78.62 167.247 78.776 167.919 78.776C168.543 78.776 169.035 78.638 169.395 78.362C169.755 78.086 169.935 77.738 169.935 77.318C169.935 76.886 169.743 76.568 169.359 76.364C168.975 76.148 168.381 75.938 167.577 75.734C166.845 75.542 166.245 75.35 165.777 75.158C165.321 74.954 164.925 74.66 164.589 74.276C164.265 73.88 164.103 73.364 164.103 72.728C164.103 72.224 164.253 71.762 164.553 71.342C164.853 70.922 165.279 70.592 165.831 70.352C166.383 70.1 167.013 69.974 167.721 69.974C168.813 69.974 169.695 70.25 170.367 70.802C171.039 71.354 171.399 72.11 171.447 73.07H169.809C169.773 72.554 169.563 72.14 169.179 71.828C168.807 71.516 168.303 71.36 167.667 71.36C167.079 71.36 166.611 71.486 166.263 71.738C165.915 71.99 165.741 72.32 165.741 72.728C165.741 73.052 165.843 73.322 166.047 73.538C166.263 73.742 166.527 73.91 166.839 74.042C167.163 74.162 167.607 74.3 168.171 74.456C168.879 74.648 169.455 74.84 169.899 75.032C170.343 75.212 170.721 75.488 171.033 75.86C171.357 76.232 171.525 76.718 171.537 77.318C171.537 77.858 171.387 78.344 171.087 78.776C170.787 79.208 170.361 79.55 169.809 79.802C169.269 80.042 168.645 80.162 167.937 80.162Z" fill="#5F5B53"/>
<path d="M224.074 51.2109V53.6602C222.527 56.2383 221.138 58.6159 219.906 60.793C218.674 62.9701 217.615 65.0755 216.727 67.1094C215.867 69.1146 215.194 71.1628 214.707 73.2539C214.249 75.3451 214.02 77.5938 214.02 80H207.145C207.145 77.1641 207.617 74.4284 208.562 71.793C209.508 69.1289 210.697 66.5365 212.129 64.0156C213.561 61.4661 215.008 58.974 216.469 56.5391H203.664V51.2109H224.074ZM238.125 50.5664C240.589 50.5664 242.637 51.2539 244.27 52.6289C245.931 53.9753 247.163 55.7943 247.965 58.0859C248.796 60.349 249.211 62.8555 249.211 65.6055C249.211 68.3555 248.796 70.8763 247.965 73.168C247.163 75.431 245.931 77.25 244.27 78.625C242.637 79.9714 240.589 80.6445 238.125 80.6445C235.661 80.6445 233.599 79.9714 231.938 78.625C230.305 77.25 229.073 75.431 228.242 73.168C227.44 70.8763 227.039 68.3555 227.039 65.6055C227.039 62.8555 227.44 60.349 228.242 58.0859C229.073 55.7943 230.305 53.9753 231.938 52.6289C233.599 51.2539 235.661 50.5664 238.125 50.5664ZM238.125 55.7656C236.979 55.7656 236.02 56.2096 235.246 57.0977C234.501 57.957 233.943 59.1315 233.57 60.6211C233.198 62.082 233.012 63.7435 233.012 65.6055C233.012 67.4674 233.198 69.1432 233.57 70.6328C233.943 72.0938 234.501 73.2539 235.246 74.1133C236.02 74.9727 236.979 75.4023 238.125 75.4023C239.271 75.4023 240.216 74.9727 240.961 74.1133C241.734 73.2539 242.307 72.0938 242.68 70.6328C243.081 69.1432 243.281 67.4674 243.281 65.6055C243.281 63.7435 243.081 62.082 242.68 60.6211C242.307 59.1315 241.734 57.957 240.961 57.0977C240.216 56.2096 239.271 55.7656 238.125 55.7656ZM270.609 63.9727V69.1289H264.809V74.9727H259.652V69.1289H253.852V63.9727H259.652V58.1719H264.809V63.9727H270.609Z" fill="#171100"/>
<path d="M287.712 73.718C287.712 72.494 287.988 71.396 288.54 70.424C289.092 69.44 289.842 68.672 290.79 68.12C291.75 67.568 292.812 67.292 293.976 67.292C295.344 67.292 296.538 67.622 297.558 68.282C298.578 68.942 299.322 69.878 299.79 71.09H297.828C297.48 70.334 296.976 69.752 296.316 69.344C295.668 68.936 294.888 68.732 293.976 68.732C293.1 68.732 292.314 68.936 291.618 69.344C290.922 69.752 290.376 70.334 289.98 71.09C289.584 71.834 289.386 72.71 289.386 73.718C289.386 74.714 289.584 75.59 289.98 76.346C290.376 77.09 290.922 77.666 291.618 78.074C292.314 78.482 293.1 78.686 293.976 78.686C294.888 78.686 295.668 78.488 296.316 78.092C296.976 77.684 297.48 77.102 297.828 76.346H299.79C299.322 77.546 298.578 78.476 297.558 79.136C296.538 79.784 295.344 80.108 293.976 80.108C292.812 80.108 291.75 79.838 290.79 79.298C289.842 78.746 289.092 77.984 288.54 77.012C287.988 76.04 287.712 74.942 287.712 73.718ZM306.53 80.162C305.606 80.162 304.766 79.952 304.01 79.532C303.266 79.112 302.678 78.518 302.246 77.75C301.826 76.97 301.616 76.07 301.616 75.05C301.616 74.042 301.832 73.154 302.264 72.386C302.708 71.606 303.308 71.012 304.064 70.604C304.82 70.184 305.666 69.974 306.602 69.974C307.538 69.974 308.384 70.184 309.14 70.604C309.896 71.012 310.49 71.6 310.922 72.368C311.366 73.136 311.588 74.03 311.588 75.05C311.588 76.07 311.36 76.97 310.904 77.75C310.46 78.518 309.854 79.112 309.086 79.532C308.318 79.952 307.466 80.162 306.53 80.162ZM306.53 78.722C307.118 78.722 307.67 78.584 308.186 78.308C308.702 78.032 309.116 77.618 309.428 77.066C309.752 76.514 309.914 75.842 309.914 75.05C309.914 74.258 309.758 73.586 309.446 73.034C309.134 72.482 308.726 72.074 308.222 71.81C307.718 71.534 307.172 71.396 306.584 71.396C305.984 71.396 305.432 71.534 304.928 71.81C304.436 72.074 304.04 72.482 303.74 73.034C303.44 73.586 303.29 74.258 303.29 75.05C303.29 75.854 303.434 76.532 303.722 77.084C304.022 77.636 304.418 78.05 304.91 78.326C305.402 78.59 305.942 78.722 306.53 78.722ZM322.489 70.136V80H320.851V78.542C320.539 79.046 320.101 79.442 319.537 79.73C318.985 80.006 318.373 80.144 317.701 80.144C316.933 80.144 316.243 79.988 315.631 79.676C315.019 79.352 314.533 78.872 314.173 78.236C313.825 77.6 313.651 76.826 313.651 75.914V70.136H315.271V75.698C315.271 76.67 315.517 77.42 316.009 77.948C316.501 78.464 317.173 78.722 318.025 78.722C318.901 78.722 319.591 78.452 320.095 77.912C320.599 77.372 320.851 76.586 320.851 75.554V70.136H322.489ZM326.893 71.738C327.181 71.174 327.589 70.736 328.117 70.424C328.657 70.112 329.311 69.956 330.079 69.956V71.648H329.647C327.811 71.648 326.893 72.644 326.893 74.636V80H325.255V70.136H326.893V71.738ZM335.462 80.162C334.706 80.162 334.028 80.036 333.428 79.784C332.828 79.52 332.354 79.16 332.006 78.704C331.658 78.236 331.466 77.702 331.43 77.102H333.122C333.17 77.594 333.398 77.996 333.806 78.308C334.226 78.62 334.772 78.776 335.444 78.776C336.068 78.776 336.56 78.638 336.92 78.362C337.28 78.086 337.46 77.738 337.46 77.318C337.46 76.886 337.268 76.568 336.884 76.364C336.5 76.148 335.906 75.938 335.102 75.734C334.37 75.542 333.77 75.35 333.302 75.158C332.846 74.954 332.45 74.66 332.114 74.276C331.79 73.88 331.628 73.364 331.628 72.728C331.628 72.224 331.778 71.762 332.078 71.342C332.378 70.922 332.804 70.592 333.356 70.352C333.908 70.1 334.538 69.974 335.246 69.974C336.338 69.974 337.22 70.25 337.892 70.802C338.564 71.354 338.924 72.11 338.972 73.07H337.334C337.298 72.554 337.088 72.14 336.704 71.828C336.332 71.516 335.828 71.36 335.192 71.36C334.604 71.36 334.136 71.486 333.788 71.738C333.44 71.99 333.266 72.32 333.266 72.728C333.266 73.052 333.368 73.322 333.572 73.538C333.788 73.742 334.052 73.91 334.364 74.042C334.688 74.162 335.132 74.3 335.696 74.456C336.404 74.648 336.98 74.84 337.424 75.032C337.868 75.212 338.246 75.488 338.558 75.86C338.882 76.232 339.05 76.718 339.062 77.318C339.062 77.858 338.912 78.344 338.612 78.776C338.312 79.208 337.886 79.55 337.334 79.802C336.794 80.042 336.17 80.162 335.462 80.162ZM350.374 74.69C350.374 75.002 350.356 75.332 350.32 75.68H342.436C342.496 76.652 342.826 77.414 343.426 77.966C344.038 78.506 344.776 78.776 345.64 78.776C346.348 78.776 346.936 78.614 347.404 78.29C347.884 77.954 348.22 77.51 348.412 76.958H350.176C349.912 77.906 349.384 78.68 348.592 79.28C347.8 79.868 346.816 80.162 345.64 80.162C344.704 80.162 343.864 79.952 343.12 79.532C342.388 79.112 341.812 78.518 341.392 77.75C340.972 76.97 340.762 76.07 340.762 75.05C340.762 74.03 340.966 73.136 341.374 72.368C341.782 71.6 342.352 71.012 343.084 70.604C343.828 70.184 344.68 69.974 345.64 69.974C346.576 69.974 347.404 70.178 348.124 70.586C348.844 70.994 349.396 71.558 349.78 72.278C350.176 72.986 350.374 73.79 350.374 74.69ZM348.682 74.348C348.682 73.724 348.544 73.19 348.268 72.746C347.992 72.29 347.614 71.948 347.134 71.72C346.666 71.48 346.144 71.36 345.568 71.36C344.74 71.36 344.032 71.624 343.444 72.152C342.868 72.68 342.538 73.412 342.454 74.348H348.682ZM356.028 80.162C355.272 80.162 354.594 80.036 353.994 79.784C353.394 79.52 352.92 79.16 352.572 78.704C352.224 78.236 352.032 77.702 351.996 77.102H353.688C353.736 77.594 353.964 77.996 354.372 78.308C354.792 78.62 355.338 78.776 356.01 78.776C356.634 78.776 357.126 78.638 357.486 78.362C357.846 78.086 358.026 77.738 358.026 77.318C358.026 76.886 357.834 76.568 357.45 76.364C357.066 76.148 356.472 75.938 355.668 75.734C354.936 75.542 354.336 75.35 353.868 75.158C353.412 74.954 353.016 74.66 352.68 74.276C352.356 73.88 352.194 73.364 352.194 72.728C352.194 72.224 352.344 71.762 352.644 71.342C352.944 70.922 353.37 70.592 353.922 70.352C354.474 70.1 355.104 69.974 355.812 69.974C356.904 69.974 357.786 70.25 358.458 70.802C359.13 71.354 359.49 72.11 359.538 73.07H357.9C357.864 72.554 357.654 72.14 357.27 71.828C356.898 71.516 356.394 71.36 355.758 71.36C355.17 71.36 354.702 71.486 354.354 71.738C354.006 71.99 353.832 72.32 353.832 72.728C353.832 73.052 353.934 73.322 354.138 73.538C354.354 73.742 354.618 73.91 354.93 74.042C355.254 74.162 355.698 74.3 356.262 74.456C356.97 74.648 357.546 74.84 357.99 75.032C358.434 75.212 358.812 75.488 359.124 75.86C359.448 76.232 359.616 76.718 359.628 77.318C359.628 77.858 359.478 78.344 359.178 78.776C358.878 79.208 358.452 79.55 357.9 79.802C357.36 80.042 356.736 80.162 356.028 80.162Z" fill="#5F5B53"/>
</svg>
